<?xml version="1.0" encoding="UTF-8"?>
<svg viewBox="0 0 217 92" xmlns="http://www.w3.org/2000/svg">
<g>
<g fill="#004489">
<path d="M.6 76.9h8.7l-.4 1.8H5.7l-2 9.5H1.4l2-9.5H.2zM16.4 76.1h2.2l-1 4.6c.6-.5 1.4-1 2.3-1 1.6 0 2.7 1 2.7 2.7 0 .6-.2 1.3-.3 1.8l-.9 4h-2.2l.8-3.9c.1-.6.2-1.1.2-1.7 0-.7-.5-1.2-1.2-1.2-1.5 0-2 1.4-2.3 2.6l-.9 4.2h-2.2l2.8-12.1zM31.5 84.7c0 1.5.8 2.1 2.3 2.1.9 0 1.7-.2 2.5-.6l-.3 1.7c-.8.3-1.8.5-2.6.5-2.4 0-4-1.2-4-3.6 0-2.6 2-5.1 4.7-5.1 2 0 3.4 1 3.4 3.2 0 .6-.1 1.2-.2 1.9h-5.8v-.1zm3.9-1.5v-.6c0-.9-.5-1.4-1.4-1.4-1.3 0-1.9.8-2.3 1.9h3.7v.1zM67.4 79.3c-.9-.6-1.9-.8-3.1-.8-2.7 0-4.5 2.1-4.5 4.8 0 1.8 1.3 3.3 3.2 3.3.5 0 .9 0 1.1-.1l.6-3h-2.4l.4-1.8h4.6L66 87.8c-.7.3-1.9.5-3 .5-3.3 0-5.5-1.5-5.5-5 0-4.1 2.7-6.6 6.7-6.6 1.3 0 2.6.2 3.7.6l-.5 2zM76 84.7c0 1.5.8 2.1 2.3 2.1.9 0 1.7-.2 2.5-.6l-.3 1.7c-.8.3-1.8.5-2.6.5-2.4 0-4-1.2-4-3.6 0-2.6 2-5.1 4.7-5.1 2 0 3.4 1 3.4 3.2 0 .6-.1 1.2-.2 1.9H76v-.1zm4-1.5v-.6c0-.9-.5-1.4-1.4-1.4-1.3 0-1.9.8-2.3 1.9H80v.1zM97.4 83.3c0 2.9-2 5-4.9 5-2.3 0-3.8-1.4-3.8-3.8 0-2.8 2.1-4.9 4.9-4.9 2.2.1 3.8 1.4 3.8 3.7zm-2.3 0c0-1.1-.4-2-1.6-2-1.7 0-2.6 1.9-2.6 3.4 0 1.1.5 1.9 1.7 1.9 1.7.1 2.5-1.8 2.5-3.3zM106.2 76.9h2.3l-2 9.5h4.4l-.4 1.8h-6.6zM122.7 86.9c-.8.9-1.5 1.5-2.7 1.5-1.5 0-2.6-.8-2.6-2.4 0-2.7 3.1-2.9 5.1-2.9h.8c.1-.2.1-.5.1-.7 0-.8-.9-1.1-1.7-1.1-.9 0-1.9.2-2.7.6l.3-1.7c.9-.3 1.9-.5 2.8-.5 1.7 0 3.2.6 3.2 2.6 0 1.1-.8 4.4-1 5.9h-1.8l.2-1.3zm-2.1-.1c1.6 0 2.1-1.1 2.4-2.4h-.8c-1 0-2.8.2-2.8 1.6.1.5.7.8 1.2.8zM133.6 81.1c.1-.5.2-.9.2-1.2h2.1l-.1.8c.6-.5 1.4-1 2.3-1 1.6 0 2.7 1 2.7 2.7 0 .6-.2 1.3-.3 1.8l-.9 4h-2.2l.8-3.9c.1-.6.2-1.1.2-1.7 0-.7-.5-1.2-1.2-1.2-1.5 0-2 1.4-2.3 2.6l-.9 4.2h-2l1.6-7.1zM147.8 89.4c.9.4 1.7.6 2.6.6 2.3 0 2.6-1.6 3.1-3.5-.5 1-1.6 1.6-2.8 1.6-2 0-2.9-1.7-2.9-3.5 0-2.5 1.5-5 4.2-5 1.1 0 2 .5 2.5 1.4l.2-1.2h2.1c-.1.2-.2.6-.3 1.2l-1.3 6.2c-.5 2.7-1.7 4.5-4.7 4.5-1.1 0-2.3-.2-3.3-.6l.6-1.7zm4.5-8c-1.6 0-2.2 2-2.2 3.3 0 1 .4 1.8 1.4 1.8 1.7 0 2.4-1.8 2.4-3.4 0-1-.6-1.7-1.6-1.7zM170.7 87c-.1.5-.2.9-.2 1.2h-2.1l.1-.8c-.6.5-1.4 1-2.3 1-1.6 0-2.7-1-2.7-2.7 0-.6.2-1.3.3-1.8l.9-4h2.2l-.8 3.9c-.1.6-.2 1.1-.2 1.7 0 .7.5 1.2 1.2 1.2 1.5 0 2-1.4 2.3-2.6l.9-4.2h2.2l-1.8 7.1zM183.6 86.9c-.8.9-1.5 1.5-2.7 1.5-1.5 0-2.6-.8-2.6-2.4 0-2.7 3.1-2.9 5.1-2.9h.8c.1-.2.1-.5.1-.7 0-.8-.9-1.1-1.7-1.1-.9 0-1.9.2-2.7.6l.3-1.7c.9-.3 1.9-.5 2.8-.5 1.7 0 3.2.6 3.2 2.6 0 1.1-.8 4.4-1 5.9h-1.8l.2-1.3zm-2.1-.1c1.6 0 2.1-1.1 2.4-2.4h-.8c-1 0-2.8.2-2.8 1.6.1.5.7.8 1.2.8zM193.2 89.4c.9.4 1.7.6 2.6.6 2.3 0 2.6-1.6 3.1-3.5-.5 1-1.6 1.6-2.8 1.6-2 0-2.9-1.7-2.9-3.5 0-2.5 1.5-5 4.2-5 1.1 0 2 .5 2.5 1.4l.2-1.2h2.1c-.1.2-.2.6-.3 1.2l-1.3 6.2c-.5 2.7-1.7 4.5-4.7 4.5-1.1 0-2.3-.2-3.3-.6l.6-1.7zm4.6-8c-1.6 0-2.2 2-2.2 3.3 0 1 .4 1.8 1.4 1.8 1.7 0 2.4-1.8 2.4-3.4-.1-1-.6-1.7-1.6-1.7zM210.6 84.7c0 1.5.8 2.1 2.3 2.1.9 0 1.7-.2 2.5-.6l-.3 1.7c-.8.3-1.8.5-2.6.5-2.4 0-4-1.2-4-3.6 0-2.6 2-5.1 4.7-5.1 2 0 3.4 1 3.4 3.2 0 .6-.1 1.2-.2 1.9h-5.8v-.1zm4-1.5v-.6c0-.9-.5-1.4-1.4-1.4-1.3 0-1.9.8-2.3 1.9h3.7v.1z"/>
</g>
<g fill="#004489">
<path d="M1.1 36.1h5.2v25.8H1.1zM11.6 36.1H18l9.8 19.3h.1V36.1h5v25.8h-6.3l-9.9-19.3h-.1v19.3h-5zM43.3 40.1h-7.4V36h20v4.1h-7.4v21.8h-5.2V40.1zM59.2 36.1h15.2v4.1H64.3v6.4h9.2v4.1h-9.2V58h10.1v4.1H59.1v-26zM79.3 36.1h5.6c5.6 0 12.2-.2 12.2 7 0 3-2 5.5-5.3 6v.1c1.4.1 2.2 1.5 2.7 2.7L98.6 62h-5.8l-3.1-8.1c-.7-1.9-1.4-2.7-3.6-2.7h-1.7v10.7h-5.2V36.1h.1zm5.2 11h1.7c2.6 0 5.5-.4 5.5-3.6 0-3.1-2.9-3.4-5.5-3.4h-1.7v7zM102.3 36.1h5.2v21.8h10V62h-15.2zM120.4 36.1h5.2v25.8h-5.2zM145 40.8c-1.6-.7-3.4-1.1-5.3-1.1-1.8 0-4.1.8-4.1 3.6 0 4.5 11.3 2.6 11.3 11.2 0 5.7-4.5 7.8-9.7 7.8-2.8 0-4.1-.4-6.6-1l.5-4.7c1.8 1 3.8 1.6 5.8 1.6s4.6-1 4.6-3.3c0-4.9-11.3-2.9-11.3-11.4 0-5.8 4.5-7.9 9-7.9 2.2 0 4.3.3 6.2.9l-.4 4.3z"/>
</g>
<path d="M216.5 62.2V.5c-1.9-.2-3.8-.3-5.8-.3-31.2 0-56.5 25.3-56.5 56.5 0 1.9.1 3.7.3 5.5 0 0 62.2.2 62 0z" fill="#004489"/>
<path d="M211.6 32.3c-13.9 0-25.2 11.3-25.2 25.2 0 1.7.2 3.3.5 4.8h29.7V32.9c-1.6-.4-3.3-.6-5-.6z" fill="#DA2520"/>
</g>
</svg>
